<?xml version="1.0" encoding="UTF-8"?>
<svg width="1280px" height="320px" viewBox="0 0 1280 320" version="1.1" xmlns="http://www.w3.org/2000/svg" xmlns:xlink="http://www.w3.org/1999/xlink">
    <!-- Generator: Sketch 52.2 (67145) - http://www.bohemiancoding.com/sketch -->
    <title>AAI_Full_Logo</title>
    <desc>Created with Sketch.</desc>
    <g id="AAI_Full_Logo" stroke="none" stroke-width="1" fill="none" fill-rule="evenodd">
        <path d="M334,207.22012 C382.110659,135.091698 460.663543,40.0949881 502.894517,34.7708704 C556.058693,27.9246512 580.126262,68.2813119 583,92.423243 L582.640784,92.423243 L582.640784,154.399543 L502.535298,154.399543 C502.535298,154.399543 502.535298,114.042882 502.535298,112.241246 C502.535298,96.026516 449.371119,169.172964 449.371119,169.172964 L583,169.172964 L583,287 L502.894517,287 L502.894517,234.031883 C502.894517,234.031883 452.963295,234.031883 449.730338,234.031883 C406.983465,234.031883 394.770073,268.983634 383.634333,287 L334,287 L253.634557,287 L253.634557,233.956337 C253.634557,233.956337 203.764929,233.956337 200.53596,233.956337 C157.841818,233.956337 145.643492,268.957938 134.521488,287 L44.469138,287 C34.4234575,268.597097 188.337634,42.7104773 253.993331,34.7719699 C307.091929,27.9159862 331.129807,68.3302056 334,92.506569 L334,154.571263 L253.634557,154.571263 C253.634557,154.571263 253.634557,114.157044 253.634557,112.352837 C253.634557,96.1149816 200.53596,169.365754 200.53596,169.365754 L334,169.365754 L334,207.22012 Z M613,77.7232809 C619.040952,77.7398953 624.283026,78.4269381 628.722576,79.7669929 L630.736534,72.5647875 C625.601636,71.0148457 619.690685,70.2401963 613,70.2232536 C613,49.3843444 613,37.3099266 613,34 C664.333333,35.6666667 690,60.6666667 690,109 L613,109 C613,97.1989791 613,86.773406 613,77.7232809 Z M639.97715,86.0516511 C643.872735,89.8101196 646.333221,94.9237622 647.354108,101.53173 L654.481625,100.3431 C653.21548,92.1476449 650.019542,85.5055078 644.889304,80.5558398 L639.97715,86.0516511 Z M647.890626,119 L647.890626,134.237692 L655.109374,134.237692 L655.109374,119 L690,119 L690,287 L613,287 L613,119 L647.890626,119 Z M647.890626,149.989059 L647.890626,170.987696 L655.109374,170.987696 L655.109374,149.989059 L647.890626,149.989059 Z M647.890626,186.735761 L647.890626,207.733226 L655.109374,207.733226 L655.109374,186.735761 L647.890626,186.735761 Z M647.890626,223.486317 L647.890626,244.486415 L655.109374,244.486415 L655.109374,223.486317 L647.890626,223.486317 Z M647.890626,260.232482 L647.890626,281.233261 L655.109374,281.233261 L655.109374,260.232482 L647.890626,260.232482 Z" id="Combined-Shape" fill="#00A4B5"></path>
        <path d="M768.600573,104.246963 L763.66354,90.8056681 L737.92622,90.8056681 L732.989187,104.246963 L727,104.246963 L747.638415,48.3765182 L754.032277,48.3765182 L774.58976,104.246963 L768.600573,104.246963 Z M761.963904,86.1093117 L750.79488,55.5020243 L739.625856,86.1093117 L761.963904,86.1093117 Z M781.388297,83.1943321 L781.388297,47.6477733 L787.053744,47.6477733 L787.053744,83.2753035 C787.053744,95.0161944 793.204803,99.7935221 802.026712,99.7935221 C810.848624,99.7935221 816.837811,95.0161944 816.837811,83.2753035 L816.837811,47.6477733 L822.503259,47.6477733 L822.503259,83.1943321 C822.503259,98.174089 813.438543,104.813765 801.945779,104.813765 C790.453013,104.813765 781.388297,98.174089 781.388297,83.1943321 Z M831.082367,52.3441296 L831.082367,47.6477733 L868.231515,47.6477733 L868.231515,52.3441296 L852.530133,52.3441296 L852.530133,104.246963 L846.864685,104.246963 L846.864685,52.3441296 L831.082367,52.3441296 Z M928.608999,75.9068826 C928.608999,92.9109312 916.549689,104.813765 900.605503,104.813765 C884.74225,104.813765 872.602004,92.9109312 872.602004,75.9068826 C872.602004,58.9838057 884.74225,47 900.605503,47 C916.549689,47 928.608999,58.9838057 928.608999,75.9068826 Z M878.42932,75.9068826 C878.42932,90.7246964 888.060583,99.8744938 900.605503,99.8744938 C913.15042,99.8744938 922.781683,90.7246964 922.781683,75.9068826 C922.781683,61.0890688 913.15042,52.0202429 900.605503,52.0202429 C888.060583,52.0202429 878.42932,61.0890688 878.42932,75.9068826 Z M936.9453,104.246963 L936.9453,48.3765182 L942.93449,48.3765182 L964.544124,96.7975709 L986.15376,48.3765182 L992.223883,48.3765182 L992.223883,104.246963 L986.558435,104.246963 L986.558435,59.6315789 L966.648434,104.246963 L962.520751,104.246963 L942.610748,59.7935223 L942.610748,104.246963 L936.9453,104.246963 Z M1056.48625,75.9068826 C1056.48625,92.9109312 1044.42694,104.813765 1028.48275,104.813765 C1012.61949,104.813765 1000.47925,92.9109312 1000.47925,75.9068826 C1000.47925,58.9838057 1012.61949,47 1028.48275,47 C1044.42694,47 1056.48625,58.9838057 1056.48625,75.9068826 Z M1006.30657,75.9068826 C1006.30657,90.7246964 1015.93783,99.8744938 1028.48275,99.8744938 C1041.02767,99.8744938 1050.65893,90.7246964 1050.65893,75.9068826 C1050.65893,61.0890688 1041.02767,52.0202429 1028.48275,52.0202429 C1015.93783,52.0202429 1006.30657,61.0890688 1006.30657,75.9068826 Z M1058.75242,52.3441296 L1058.75242,47.6477733 L1095.90157,47.6477733 L1095.90157,52.3441296 L1080.20019,52.3441296 L1080.20019,104.246963 L1074.53474,104.246963 L1074.53474,52.3441296 L1058.75242,52.3441296 Z M1106.90873,104.246963 L1106.90873,47.6477733 L1112.57418,47.6477733 L1112.57418,104.246963 L1106.90873,104.246963 Z M1147.61902,98.0931173 L1166.31499,47.6477733 L1172.30418,47.6477733 L1150.85642,104.246963 L1144.38162,104.246963 L1122.93385,47.6477733 L1129.08491,47.6477733 L1147.61902,98.0931173 Z M1212.36699,47.5668016 L1212.36699,52.2631579 L1188.49118,52.2631579 L1188.49118,73.3967611 L1209.93894,73.3967611 L1209.93894,78.0931174 L1188.49118,78.0931174 L1188.49118,99.5506074 L1212.36699,99.5506074 L1212.36699,104.246963 L1182.82573,104.246963 L1182.82573,47.5668016 L1212.36699,47.5668016 Z M768.600573,195.340081 L763.66354,181.898785 L737.92622,181.898785 L732.989187,195.340081 L727,195.340081 L747.638415,139.469636 L754.032277,139.469636 L774.58976,195.340081 L768.600573,195.340081 Z M761.963904,177.202429 L750.79488,146.595142 L739.625856,177.202429 L761.963904,177.202429 Z M816.109397,155.178138 C816.109397,148.052632 812.224518,143.518219 802.674194,143.518219 L791.343299,143.518219 L791.343299,167.080972 L802.755129,167.080972 C811.981714,167.080972 816.109397,162.060729 816.109397,155.178138 Z M785.677851,138.740891 L802.674194,138.740891 C815.785657,138.740891 821.936716,145.866397 821.936716,155.178138 C821.936716,162.951417 817.566226,169.510122 808.015902,171.291498 L822.584194,195.340081 L815.785657,195.340081 L801.783908,171.696356 L791.343299,171.696356 L791.343299,195.340081 L785.677851,195.340081 L785.677851,138.740891 Z M831.1633,143.437247 L831.1633,138.740891 L868.31245,138.740891 L868.31245,143.437247 L852.611068,143.437247 L852.611068,195.340081 L846.94562,195.340081 L846.94562,143.437247 L831.1633,143.437247 Z M879.319606,195.340081 L879.319606,138.740891 L884.985053,138.740891 L884.985053,195.340081 L879.319606,195.340081 Z M899.877088,195.340081 L899.877088,138.740891 L930.470505,138.740891 L930.470505,143.437247 L905.542536,143.437247 L905.542536,164.57085 L926.585626,164.57085 L926.585626,169.267207 L905.542536,169.267207 L905.542536,195.340081 L899.877088,195.340081 Z M941.8014,195.340081 L941.8014,138.740891 L947.466848,138.740891 L947.466848,195.340081 L941.8014,195.340081 Z M957.745587,167 C957.745587,149.995951 969.723963,138.093117 985.425346,138.093117 C998.051201,138.093117 1007.43966,144.408907 1011.4864,155.259109 L1004.84974,155.259109 C1001.69327,147.728745 995.056608,143.032389 985.425346,143.032389 C973.042296,143.032389 963.572905,152.182186 963.572905,167 C963.572905,181.736842 973.042296,190.88664 985.425346,190.88664 C995.056608,190.88664 1001.69327,186.190283 1004.84974,178.821862 L1011.4864,178.821862 C1007.43966,189.510121 998.051201,195.825911 985.425346,195.825911 C969.723963,195.825911 957.745587,184.004049 957.745587,167 Z M1022.73636,195.340081 L1022.73636,138.740891 L1028.40181,138.740891 L1028.40181,195.340081 L1022.73636,195.340081 Z M1081.00954,195.340081 L1076.07251,181.898785 L1050.33519,181.898785 L1045.39815,195.340081 L1039.40897,195.340081 L1060.04739,139.469636 L1066.44125,139.469636 L1086.99873,195.340081 L1081.00954,195.340081 Z M1074.37287,177.202429 L1063.20385,146.595142 L1052.03482,177.202429 L1074.37287,177.202429 Z M1098.08682,138.740891 L1103.75227,138.740891 L1103.75227,190.724696 L1124.06694,190.724696 L1124.06694,195.340081 L1098.08682,195.340081 L1098.08682,138.740891 Z M730.884879,286.433198 L730.884879,229.834008 L736.550327,229.834008 L736.550327,286.433198 L730.884879,286.433198 Z M788.429638,229.834008 L794.095085,229.834008 L794.095085,286.433198 L788.429638,286.433198 L757.107806,238.821862 L757.107806,286.433198 L751.442359,286.433198 L751.442359,229.834008 L757.107806,229.834008 L788.429638,277.364373 L788.429638,229.834008 Z M804.940373,234.530364 L804.940373,229.834008 L842.08952,229.834008 L842.08952,234.530364 L826.388138,234.530364 L826.388138,286.433198 L820.72269,286.433198 L820.72269,234.530364 L804.940373,234.530364 Z M882.637939,229.753037 L882.637939,234.449393 L858.762124,234.449393 L858.762124,255.582996 L880.209891,255.582996 L880.209891,260.279352 L858.762124,260.279352 L858.762124,281.736842 L882.637939,281.736842 L882.637939,286.433198 L853.096676,286.433198 L853.096676,229.753037 L882.637939,229.753037 Z M895.830338,229.834008 L901.495786,229.834008 L901.495786,281.817814 L921.810461,281.817814 L921.810461,286.433198 L895.830338,286.433198 L895.830338,229.834008 Z M931.927334,229.834008 L937.592782,229.834008 L937.592782,281.817814 L957.907458,281.817814 L957.907458,286.433198 L931.927334,286.433198 L931.927334,229.834008 Z M968.024328,286.433198 L968.024328,229.834008 L973.689775,229.834008 L973.689775,286.433198 L968.024328,286.433198 Z M1011.97202,229.186235 C1024.11226,229.186235 1033.66258,235.582996 1037.70933,246.352227 L1031.07267,246.352227 C1027.9162,239.064777 1021.03673,234.368421 1011.97202,234.368421 C999.427095,234.368421 989.795835,243.437247 989.795835,258.093117 C989.795835,272.748988 999.427095,281.898785 1011.97202,281.898785 C1023.86945,281.898785 1032.61043,273.882591 1033.50072,261.008097 L1009.70584,261.008097 L1009.70584,256.392713 L1039.4899,256.392713 L1039.4899,260.522267 C1038.59962,275.502024 1027.43059,287 1011.97202,287 C996.108762,287 983.968517,275.097166 983.968517,258.093117 C983.968517,241.17004 996.108762,229.186235 1011.97202,229.186235 Z M1079.39084,229.753037 L1079.39084,234.449393 L1055.51503,234.449393 L1055.51503,255.582996 L1076.96279,255.582996 L1076.96279,260.279352 L1055.51503,260.279352 L1055.51503,281.736842 L1079.39084,281.736842 L1079.39084,286.433198 L1049.84958,286.433198 L1049.84958,229.753037 L1079.39084,229.753037 Z M1129.57052,229.834008 L1135.23597,229.834008 L1135.23597,286.433198 L1129.57052,286.433198 L1098.24869,238.821862 L1098.24869,286.433198 L1092.58324,286.433198 L1092.58324,229.834008 L1098.24869,229.834008 L1129.57052,277.364373 L1129.57052,229.834008 Z M1143.49133,258.093117 C1143.49133,241.089069 1155.46971,229.186235 1171.17109,229.186235 C1183.79695,229.186235 1193.1854,235.502024 1197.23215,246.352227 L1190.59548,246.352227 C1187.43902,238.821862 1180.80235,234.125506 1171.17109,234.125506 C1158.78804,234.125506 1149.31865,243.275304 1149.31865,258.093117 C1149.31865,272.82996 1158.78804,281.979757 1171.17109,281.979757 C1180.80235,281.979757 1187.43902,277.283401 1190.59548,269.91498 L1197.23215,269.91498 C1193.1854,280.603239 1183.79695,286.919028 1171.17109,286.919028 C1155.46971,286.919028 1143.49133,275.097166 1143.49133,258.093117 Z M1236,229.753037 L1236,234.449393 L1212.12418,234.449393 L1212.12418,255.582996 L1233.57195,255.582996 L1233.57195,260.279352 L1212.12418,260.279352 L1212.12418,281.736842 L1236,281.736842 L1236,286.433198 L1206.45874,286.433198 L1206.45874,229.753037 L1236,229.753037 Z" id="Automotive-Artificia" fill="#00A4B5" fill-rule="nonzero"></path>
    </g>
</svg>